<?xml version="1.0" encoding="UTF-8" standalone="no"?>
<svg
   id="Layer_1"
   enable-background="new 0 0 511.231 511.231"
   height="512"
   viewBox="0 0 511.231 511.231"
   width="512"
   version="1.1"
   sodipodi:docname="icon.svg"
   inkscape:export-filename="C:\Users\tazza\Desktop\splashScreen.png"
   inkscape:export-xdpi="52.788578"
   inkscape:export-ydpi="52.788578"
   inkscape:version="1.1 (c68e22c387, 2021-05-23)"
   xmlns:inkscape="http://www.inkscape.org/namespaces/inkscape"
   xmlns:sodipodi="http://sodipodi.sourceforge.net/DTD/sodipodi-0.dtd"
   xmlns="http://www.w3.org/2000/svg"
   xmlns:svg="http://www.w3.org/2000/svg">
  <defs
     id="defs11" />
  <sodipodi:namedview
     id="namedview9"
     pagecolor="#ffffff"
     bordercolor="#666666"
     borderopacity="1.0"
     inkscape:pageshadow="2"
     inkscape:pageopacity="0.0"
     inkscape:pagecheckerboard="0"
     showgrid="false"
     inkscape:zoom="0.85253905"
     inkscape:cx="583.55098"
     inkscape:cy="533.69989"
     inkscape:window-width="3840"
     inkscape:window-height="2066"
     inkscape:window-x="-11"
     inkscape:window-y="-11"
     inkscape:window-maximized="1"
     inkscape:current-layer="layer1" />
  <g
     inkscape:groupmode="layer"
     id="layer1"
     inkscape:label="Layer 1"
     style="display:inline" />
  <g
     inkscape:groupmode="layer"
     id="layer2"
     inkscape:label="Layer 2"
     style="display:inline">
    <path
       d="M 488.69545,295.49402 557.70017,103.60775 C 562.90225,89.14267 552.57684,73.704026 537.68875,73.704026 H 99.799216 L 82.425561,-58.763944 c -1.202735,-9.173447 -7.775753,-16.603332 -16.481943,-18.632182 l -87.733286,-20.443605 c -11.509463,-2.675589 -22.934828,4.823538 -25.519184,16.762593 -2.585691,11.94044 4.648104,23.795016 16.157567,26.476145 l 73.251016,17.068652 49.236255,375.925811 c 1.455041,12.17586 12.188924,20.82721 23.942674,19.24707 l 242.02177,-32.56271 81.32179,52.29586 c 17.07062,10.97657 9.59522,38.20608 -10.48828,38.20608 H 115.29602 c -11.79513,0 -21.358321,9.9199 -21.358321,22.15809 0,12.23819 9.563191,22.15809 21.358321,22.15809 h 312.83659 c 62.87621,0 86.56125,-85.7421 32.99326,-120.18962 l -36.77635,-23.64961 47.08174,-6.33444 c 7.85318,-1.05528 14.49695,-6.5311 17.26419,-14.22826 z M 131.08382,310.8288 108.0382,118.02158 h 398.88524 l -53.75087,149.47154 z"
       id="path2"
       style="fill:#f9f9f9;stroke-width:1.35966"
       inkscape:export-filename="C:\Users\tazza\Desktop\icon.png"
       inkscape:export-xdpi="300"
       inkscape:export-ydpi="300" />
    <path
       d="m 161.68895,485.35006 c -33.02262,0 -59.88872,27.87209 -59.88872,62.13127 0,34.25778 26.8661,62.12989 59.88872,62.12989 33.02262,0 59.88872,-27.87211 59.88872,-62.12989 0,-34.25918 -26.8661,-62.13127 -59.88872,-62.13127 z m 0,79.94637 c -9.46841,0 -17.17208,-7.99214 -17.17208,-17.81372 0,-9.82434 7.70367,-17.8151 17.17208,-17.8151 9.4684,0 17.17208,7.99215 17.17208,17.8151 0,9.82158 -7.70368,17.81372 -17.17208,17.81372 z"
       id="path4"
       style="fill:#f9f9f9;stroke-width:1.35966"
       inkscape:export-filename="C:\Users\tazza\Desktop\icon.png"
       inkscape:export-xdpi="300"
       inkscape:export-ydpi="300" />
    <path
       d="m 367.85544,485.35006 c -33.02264,0 -59.88872,27.87209 -59.88872,62.13127 0,34.25778 26.86608,62.12989 59.88872,62.12989 33.02262,0 59.88872,-27.87211 59.88872,-62.12989 0,-34.25918 -26.8661,-62.13127 -59.88872,-62.13127 z m 0,79.94637 c -9.46841,0 -17.17208,-7.99214 -17.17208,-17.81372 0,-9.82434 7.70367,-17.8151 17.17208,-17.8151 9.4684,0 17.17208,7.99215 17.17208,17.8151 0,9.82158 -7.70233,17.81372 -17.17208,17.81372 z"
       id="path6"
       style="fill:#f9f9f9;stroke-width:1.35966"
       inkscape:export-filename="C:\Users\tazza\Desktop\icon.png"
       inkscape:export-xdpi="300"
       inkscape:export-ydpi="300" />
  </g>
</svg>
