<?xml version="1.0" encoding="UTF-8" standalone="no"?>
<!-- Generator: Adobe Illustrator 18.0.0, SVG Export Plug-In . SVG Version: 6.00 Build 0)  -->

<svg
   version="1.1"
   id="Capa_1"
   x="0px"
   y="0px"
   viewBox="0 0 330 330"
   style="enable-background:new 0 0 330 330;"
   xml:space="preserve"
   sodipodi:docname="info.svg"
   inkscape:version="1.1 (c68e22c387, 2021-05-23)"
   inkscape:export-filename="C:\Users\tazza\Desktop\info.png"
   inkscape:export-xdpi="300"
   inkscape:export-ydpi="300"
   xmlns:inkscape="http://www.inkscape.org/namespaces/inkscape"
   xmlns:sodipodi="http://sodipodi.sourceforge.net/DTD/sodipodi-0.dtd"
   xmlns="http://www.w3.org/2000/svg"
   xmlns:svg="http://www.w3.org/2000/svg"><defs
   id="defs43" /><sodipodi:namedview
   id="namedview41"
   pagecolor="#ffffff"
   bordercolor="#666666"
   borderopacity="1.0"
   inkscape:pageshadow="2"
   inkscape:pageopacity="0.0"
   inkscape:pagecheckerboard="0"
   showgrid="false"
   inkscape:zoom="2.6454545"
   inkscape:cx="245.51547"
   inkscape:cy="133.05842"
   inkscape:window-width="3840"
   inkscape:window-height="2066"
   inkscape:window-x="-11"
   inkscape:window-y="-11"
   inkscape:window-maximized="1"
   inkscape:current-layer="Capa_1" />
<g
   id="g8"
   style="fill:#121212;fill-opacity:1.0"
   inkscape:export-filename="C:\Users\tazza\Desktop\info.png"
   inkscape:export-xdpi="300"
   inkscape:export-ydpi="300">
	<path
   d="M165,0C74.019,0,0,74.02,0,165.001C0,255.982,74.019,330,165,330s165-74.018,165-164.999C330,74.02,255.981,0,165,0z    M165,300c-74.44,0-135-60.56-135-134.999C30,90.562,90.56,30,165,30s135,60.562,135,135.001C300,239.44,239.439,300,165,300z"
   id="path2"
   style="fill:#121212;fill-opacity:1.0" />
	<path
   d="M164.998,70c-11.026,0-19.996,8.976-19.996,20.009c0,11.023,8.97,19.991,19.996,19.991   c11.026,0,19.996-8.968,19.996-19.991C184.994,78.976,176.024,70,164.998,70z"
   id="path4"
   style="fill:#121212;fill-opacity:1.0" />
	<path
   d="M165,140c-8.284,0-15,6.716-15,15v90c0,8.284,6.716,15,15,15c8.284,0,15-6.716,15-15v-90C180,146.716,173.284,140,165,140z   "
   id="path6"
   style="fill:#121212;fill-opacity:1.0" />
</g>
<g
   id="g10">
</g>
<g
   id="g12">
</g>
<g
   id="g14">
</g>
<g
   id="g16">
</g>
<g
   id="g18">
</g>
<g
   id="g20">
</g>
<g
   id="g22">
</g>
<g
   id="g24">
</g>
<g
   id="g26">
</g>
<g
   id="g28">
</g>
<g
   id="g30">
</g>
<g
   id="g32">
</g>
<g
   id="g34">
</g>
<g
   id="g36">
</g>
<g
   id="g38">
</g>
</svg>
