<?xml version="1.0" encoding="UTF-8" standalone="no"?>
<!-- Generator: Adobe Illustrator 19.0.0, SVG Export Plug-In . SVG Version: 6.00 Build 0)  -->

<svg
   version="1.1"
   id="Capa_1"
   x="0px"
   y="0px"
   viewBox="0 0 60.123 60.123"
   style="enable-background:new 0 0 60.123 60.123;"
   xml:space="preserve"
   sodipodi:docname="list.svg"
   inkscape:export-filename="C:\Users\tazza\Desktop\list.png"
   inkscape:export-xdpi="48"
   inkscape:export-ydpi="48"
   inkscape:version="1.1 (c68e22c387, 2021-05-23)"
   xmlns:inkscape="http://www.inkscape.org/namespaces/inkscape"
   xmlns:sodipodi="http://sodipodi.sourceforge.net/DTD/sodipodi-0.dtd"
   xmlns="http://www.w3.org/2000/svg"
   xmlns:svg="http://www.w3.org/2000/svg"><defs
   id="defs49" /><sodipodi:namedview
   id="namedview47"
   pagecolor="#ffffff"
   bordercolor="#666666"
   borderopacity="1.0"
   inkscape:pageshadow="2"
   inkscape:pageopacity="0.0"
   inkscape:pagecheckerboard="0"
   showgrid="false"
   inkscape:zoom="14.520233"
   inkscape:cx="30.027066"
   inkscape:cy="30.095935"
   inkscape:window-width="3840"
   inkscape:window-height="2066"
   inkscape:window-x="-11"
   inkscape:window-y="-11"
   inkscape:window-maximized="1"
   inkscape:current-layer="Capa_1" />
<g
   id="g14"
   style="fill:#ffffff"
   inkscape:export-filename="C:\Users\tazza\Desktop\list.png"
   inkscape:export-xdpi="6"
   inkscape:export-ydpi="6">
	<path
   d="M57.124,51.893H16.92c-1.657,0-3-1.343-3-3s1.343-3,3-3h40.203c1.657,0,3,1.343,3,3S58.781,51.893,57.124,51.893z"
   id="path2"
   style="fill:#ffffff" />
	<path
   d="M57.124,33.062H16.92c-1.657,0-3-1.343-3-3s1.343-3,3-3h40.203c1.657,0,3,1.343,3,3   C60.124,31.719,58.781,33.062,57.124,33.062z"
   id="path4"
   style="fill:#ffffff" />
	<path
   d="M57.124,14.231H16.92c-1.657,0-3-1.343-3-3s1.343-3,3-3h40.203c1.657,0,3,1.343,3,3S58.781,14.231,57.124,14.231z"
   id="path6"
   style="fill:#ffffff" />
	<circle
   cx="4.029"
   cy="11.463"
   r="4.029"
   id="circle8"
   style="fill:#ffffff" />
	<circle
   cx="4.029"
   cy="30.062"
   r="4.029"
   id="circle10"
   style="fill:#ffffff" />
	<circle
   cx="4.029"
   cy="48.661"
   r="4.029"
   id="circle12"
   style="fill:#ffffff" />
</g>
<g
   id="g16">
</g>
<g
   id="g18">
</g>
<g
   id="g20">
</g>
<g
   id="g22">
</g>
<g
   id="g24">
</g>
<g
   id="g26">
</g>
<g
   id="g28">
</g>
<g
   id="g30">
</g>
<g
   id="g32">
</g>
<g
   id="g34">
</g>
<g
   id="g36">
</g>
<g
   id="g38">
</g>
<g
   id="g40">
</g>
<g
   id="g42">
</g>
<g
   id="g44">
</g>
</svg>
