<?xml version="1.0" encoding="UTF-8" standalone="no"?>
<svg
   height="512pt"
   viewBox="0 0 512 512"
   width="512pt"
   version="1.1"
   id="svg6"
   sodipodi:docname="plus.svg"
   inkscape:version="1.1 (c68e22c387, 2021-05-23)"
   xmlns:inkscape="http://www.inkscape.org/namespaces/inkscape"
   xmlns:sodipodi="http://sodipodi.sourceforge.net/DTD/sodipodi-0.dtd"
   xmlns="http://www.w3.org/2000/svg"
   xmlns:svg="http://www.w3.org/2000/svg">
  <defs
     id="defs10" />
  <sodipodi:namedview
     id="namedview8"
     pagecolor="#ffffff"
     bordercolor="#666666"
     borderopacity="1.0"
     inkscape:pageshadow="2"
     inkscape:pageopacity="0.0"
     inkscape:pagecheckerboard="0"
     inkscape:document-units="pt"
     showgrid="false"
     inkscape:zoom="1.4142136"
     inkscape:cx="276.8323"
     inkscape:cy="379.36279"
     inkscape:window-width="3840"
     inkscape:window-height="2066"
     inkscape:window-x="-11"
     inkscape:window-y="-11"
     inkscape:window-maximized="1"
     inkscape:current-layer="svg6"
     inkscape:snap-page="false" />
  <path
     d="m256 0c-141.164062 0-256 114.835938-256 256s114.835938 256 256 256 256-114.835938 256-256-114.835938-256-256-256zm0 0"
     fill="#2196f3"
     id="path2"
     style="fill:#08dcc4;fill-opacity:1;stroke:#bb86fc;stroke-opacity:1"
     inkscape:export-filename="C:\Users\tazza\Desktop\plus.png"
     inkscape:export-xdpi="300"
     inkscape:export-ydpi="300" />
  <path
     d="m368 277.332031h-90.667969v90.667969c0 11.777344-9.554687 21.332031-21.332031 21.332031s-21.332031-9.554687-21.332031-21.332031v-90.667969h-90.667969c-11.777344 0-21.332031-9.554687-21.332031-21.332031s9.554687-21.332031 21.332031-21.332031h90.667969v-90.667969c0-11.777344 9.554687-21.332031 21.332031-21.332031s21.332031 9.554687 21.332031 21.332031v90.667969h90.667969c11.777344 0 21.332031 9.554687 21.332031 21.332031s-9.554687 21.332031-21.332031 21.332031zm0 0"
     fill="#fafafa"
     id="path4"
     style="stroke:#bb86fc;stroke-opacity:1" />
  <path
     style="fill:#e6e6e6;stroke-width:0.781978;stroke:#bb86fc;stroke-opacity:1"
     d="M 326.47575,681.83088 C 268.30422,679.45951 211.67121,661.89024 161.23039,630.56678 126.70665,609.12772 93.328095,578.40132 67.881236,544.63483 24.745205,487.39584 0.39478605,414.04073 0.39478605,341.33333 0.39478605,221.76836 63.510691,110.75893 166.72759,48.784084 239.43105,5.1305181 326.03128,-9.6072078 409.75639,7.4251675 536.38175,33.184829 638.98318,130.6848 671.32006,255.98364 c 24.0041,93.01094 7.98398,190.90703 -44.35891,271.06943 -44.8981,68.7608 -113.39683,119.50143 -191.64812,141.96391 -24.08868,6.91479 -52.80817,11.69746 -75.02956,12.49469 -6.33674,0.22735 -13.45674,0.51769 -15.82223,0.64521 -2.36548,0.12752 -10.45895,-0.0192 -17.98549,-0.326 z m 27.20181,-165.2187 c 8.27073,-4.25307 13.55011,-10.76817 15.52507,-19.15896 0.81783,-3.47464 1.04206,-17.54176 1.05167,-65.97934 l 0.0122,-61.56314 64.31768,-0.21311 64.31768,-0.2131 4.9363,-2.67646 c 6.12167,-3.31916 11.25091,-8.91429 13.53134,-14.76037 2.44401,-6.26544 2.40868,-15.25044 -0.0851,-21.6563 -2.19186,-5.63019 -8.60841,-12.40865 -14.47261,-15.2889 l -3.90989,-1.92037 -64.31768,-0.2131 -64.31768,-0.2131 -0.0122,-61.56315 c -0.01,-48.43757 -0.23383,-62.5047 -1.05166,-65.97933 -1.96842,-8.36296 -7.18345,-14.81621 -15.52508,-19.21125 -3.7613,-1.98175 -4.87275,-2.17784 -12.34424,-2.17784 -7.47148,0 -8.58294,0.19609 -12.34422,2.17784 -8.34163,4.39504 -13.55666,10.84829 -15.52508,19.21125 -0.81783,3.47463 -1.04205,17.54176 -1.05166,65.97933 l -0.0122,61.56315 -64.31768,0.2131 -64.31768,0.2131 -4.7732,2.49506 c -9.92195,5.18642 -15.43361,14.34876 -15.43361,25.65614 0,11.31424 5.22262,20.02678 15.27051,25.47474 l 4.9363,2.67646 64.31768,0.2131 64.31768,0.21311 v 61.32916 c 0,42.39014 0.27124,62.60884 0.87833,65.47304 2.12446,10.02309 8.94885,17.60433 19.33125,21.47518 1.87541,0.6992 5.27963,0.97705 9.89657,0.80773 5.80392,-0.21286 7.76249,-0.63077 11.17126,-2.38367 z"
     id="path44"
     transform="scale(0.75)" />
  <path
     style="fill:#bb86fc;stroke-width:0.781978;fill-opacity:1;stroke:#bb86fc;stroke-opacity:1"
     d="M 319.04696,681.10257 C 244.05809,675.71724 173.40855,646.43897 118.07866,597.81815 100.92338,582.74305 81.34638,561.68307 67.925268,543.86559 31.851377,495.97493 8.6726833,435.55611 2.3600799,372.95987 0.12587404,350.80532 0.78329931,319.17147 3.9680559,295.58763 13.50867,224.93723 46.264283,157.40627 95.963454,105.92433 152.97558,46.867125 224.68746,11.771139 307.05076,2.6176358 323.68089,0.76943496 359.15481,0.76199974 375.58382,2.6032715 419.01468,7.47076 454.02131,17.640983 491.86407,36.385319 c 92.41745,45.776366 159.40135,130.949671 181.7084,231.051101 5.36184,24.06092 7.20363,40.08794 7.70881,67.08121 0.43918,23.4674 -0.24577,36.10549 -2.99702,55.29833 -13.6846,95.46411 -68.30437,181.4154 -149.66723,235.52077 -45.27816,30.10946 -97.47557,48.81173 -152.25769,54.55375 -13.89152,1.45605 -44.81008,2.10994 -57.31238,1.21209 z m 35.26287,-164.40235 c 5.53122,-2.86279 10.98315,-8.41473 13.4681,-13.71515 l 2.09759,-4.47419 0.21733,-63.83331 0.21734,-63.83331 2.42184,-0.48436 c 1.33202,-0.26641 30.39506,-0.48438 64.58454,-0.48438 h 62.1627 l 4.47349,-2.71749 c 5.57293,-3.38539 11.34324,-9.47498 13.56555,-14.31615 2.41595,-5.26304 2.39537,-17.6562 -0.0382,-23.04332 -2.13672,-4.72987 -8.8379,-11.84615 -13.88632,-14.7465 l -3.90989,-2.24624 -62.26498,-0.007 c -34.24575,-0.004 -63.35482,-0.2253 -64.68684,-0.49171 l -2.42184,-0.48436 -0.21733,-63.83332 -0.21735,-63.83361 -2.0896,-4.45611 c -2.71879,-5.79787 -8.08573,-11.09048 -14.1604,-13.96428 -4.31985,-2.04365 -5.69366,-2.30078 -12.29219,-2.30078 -6.53969,0 -7.99032,0.2659 -12.12066,2.22174 -6.0454,2.86269 -11.67722,8.37707 -14.32497,14.02625 l -2.09656,4.47318 -0.21733,63.83331 -0.21733,63.83331 -2.42184,0.48437 c -1.33202,0.2664 -30.34063,0.48437 -64.4636,0.48437 H 183.4293 l -3.74214,2.05386 c -5.99322,3.28937 -8.72091,5.63235 -11.57167,9.93958 -7.44277,11.24537 -6.22887,27.43917 2.72831,36.39635 2.06608,2.06608 5.72521,4.86758 8.13141,6.22555 l 4.3749,2.46904 h 62.08134 c 34.14474,0 63.17117,0.21797 64.50319,0.48438 l 2.42184,0.48436 0.21733,63.83331 0.21733,63.83331 2.0896,4.45612 c 2.70621,5.77102 8.05974,11.06701 14.1604,14.00818 4.62187,2.22823 5.27117,2.33082 13.07417,2.06579 7.01452,-0.23824 8.79117,-0.57927 12.19452,-2.34075 z"
     id="path157"
     transform="scale(0.75)"
     inkscape:export-filename="C:\Users\tazza\Desktop\plus.png"
     inkscape:export-xdpi="300"
     inkscape:export-ydpi="300" />
  <path
     style="fill:#dedede;fill-opacity:1;stroke-width:0.781978;stroke:#bb86fc;stroke-opacity:1"
     d="m 333.00072,517.40696 c -7.83924,-2.92493 -13.00861,-7.46126 -16.88763,-14.81957 l -2.14898,-4.07651 -0.21299,-64.69117 -0.21299,-64.69118 -64.69117,-0.21299 -64.69118,-0.21298 -4.9017,-2.65802 c -5.63908,-3.05788 -9.37136,-6.87656 -12.4693,-12.75797 -1.96077,-3.72251 -2.1773,-4.91091 -2.17784,-11.95324 -5.7e-4,-7.41053 0.1385,-8.0763 2.65742,-12.72148 3.05766,-5.63869 6.876,-9.37081 12.75796,-12.4699 l 4.13346,-2.17784 64.69118,-0.21299 64.69117,-0.21299 0.21299,-64.69117 0.21299,-64.69118 2.17784,-4.13346 c 3.09909,-5.88196 6.83121,-9.7003 12.4699,-12.75796 4.64483,-2.51873 5.3115,-2.65802 12.72148,-2.65802 7.40998,0 8.07665,0.13929 12.72148,2.65802 5.63869,3.05766 9.37081,6.876 12.46991,12.75796 l 2.17784,4.13346 0.21298,64.69118 0.21299,64.69117 64.69118,0.21299 64.69117,0.21299 4.13346,2.17784 c 5.88196,3.09909 9.70031,6.83121 12.75796,12.4699 2.51873,4.64483 2.65803,5.3115 2.65803,12.72148 0,7.40998 -0.1393,8.07665 -2.65803,12.72148 -3.05765,5.63869 -6.876,9.37081 -12.75796,12.46991 l -4.13346,2.17784 -64.69117,0.21298 -64.69118,0.21299 -0.21299,64.69118 -0.21298,64.69117 -2.17784,4.13346 c -3.11123,5.90499 -6.84643,9.71446 -12.46991,12.71783 -4.26084,2.27562 -5.77072,2.65016 -11.54851,2.86466 -4.27261,0.15863 -7.66795,-0.13422 -9.50558,-0.81987 z"
     id="path861"
     transform="scale(0.75)"
     inkscape:export-filename="C:\Users\tazza\Desktop\plus.png"
     inkscape:export-xdpi="300"
     inkscape:export-ydpi="300" />
  <path
     style="fill:#121212;fill-opacity:1.0;stroke:#bb86fc;stroke-width:0.353553;stroke-opacity:1"
     d="m 334.28473,517.20041 c -2.218,-0.51869 -6.84504,-2.902 -9.40883,-4.84633 -3.59837,-2.72894 -6.36787,-6.26507 -9.18107,-11.72248 l -1.18463,-2.2981 -0.23332,-64.87704 c -0.12832,-35.68238 -0.25315,-64.89557 -0.27739,-64.91821 -0.0242,-0.0226 -29.20127,-0.1132 -64.83784,-0.20125 l -64.79376,-0.16009 -3.02291,-1.64779 c -7.44707,-4.0594 -11.08084,-7.65887 -14.41389,-14.27783 -1.4853,-2.9496 -1.93618,-6.21396 -1.74882,-12.66145 0.17587,-6.0519 0.60887,-7.5322 3.61322,-12.35247 3.10019,-4.97406 6.92552,-8.30013 13.28451,-11.55072 l 2.29809,-1.17474 64.58244,-0.18986 c 35.52034,-0.10442 64.71501,-0.32244 64.87704,-0.48448 0.16204,-0.16204 0.37955,-29.35671 0.48336,-64.87705 l 0.18874,-64.58243 1.17586,-2.29809 c 1.95032,-3.8117 4.86635,-7.95015 6.93216,-9.83819 2.33437,-2.13347 6.46477,-4.7625 9.47786,-6.03272 2.11372,-0.89107 2.43291,-0.92288 9.26025,-0.92288 6.82734,0 7.14652,0.0318 9.26025,0.92288 5.05168,2.12961 10.46121,6.35439 13.0784,10.21405 0.59336,0.87505 1.84525,3.01071 2.78197,4.74592 l 1.70314,3.15492 0.15834,64.81571 c 0.0871,35.64865 0.17706,64.83596 0.19993,64.8607 0.0229,0.0248 29.23625,0.15008 64.91863,0.27852 l 64.87704,0.23354 2.2981,1.18087 c 6.26189,3.21764 10.24847,6.67293 13.24385,11.47882 2.96838,4.76257 3.43316,6.3265 3.63212,12.22158 0.22769,6.74648 -0.20617,9.70386 -1.92103,13.09478 -3.34039,6.60519 -7.90778,10.94194 -15.66205,14.87118 l -1.59099,0.80618 -64.87704,0.20677 -64.87705,0.20678 -0.20061,64.90269 -0.20061,64.90269 -1.48258,2.74861 c -2.15686,3.99867 -3.75543,6.29393 -5.90408,8.47718 -3.44925,3.50481 -9.32645,6.90102 -13.20842,7.63266 -2.33355,0.4398 -11.35886,0.41074 -13.29838,-0.0428 z"
     id="path6899"
     transform="scale(0.75)"
     inkscape:export-filename="C:\Users\tazza\Desktop\plus.png"
     inkscape:export-xdpi="300"
     inkscape:export-ydpi="300" />
</svg>
