<?xml version="1.0" encoding="UTF-8" standalone="no"?>
<svg
   id="Layer_1"
   enable-background="new 0 0 511.231 511.231"
   height="512"
   viewBox="0 0 511.231 511.231"
   width="512"
   version="1.1"
   sodipodi:docname="trolley.svg"
   inkscape:export-filename="C:\Users\tazza\Desktop\splashScreen.png"
   inkscape:export-xdpi="52.788578"
   inkscape:export-ydpi="52.788578"
   inkscape:version="1.1 (c68e22c387, 2021-05-23)"
   xmlns:inkscape="http://www.inkscape.org/namespaces/inkscape"
   xmlns:sodipodi="http://sodipodi.sourceforge.net/DTD/sodipodi-0.dtd"
   xmlns="http://www.w3.org/2000/svg"
   xmlns:svg="http://www.w3.org/2000/svg">
  <defs
     id="defs11" />
  <sodipodi:namedview
     id="namedview9"
     pagecolor="#ffffff"
     bordercolor="#666666"
     borderopacity="1.0"
     inkscape:pageshadow="2"
     inkscape:pageopacity="0.0"
     inkscape:pagecheckerboard="0"
     showgrid="false"
     inkscape:zoom="1.7050781"
     inkscape:cx="195.00573"
     inkscape:cy="255.70676"
     inkscape:window-width="3840"
     inkscape:window-height="2066"
     inkscape:window-x="-11"
     inkscape:window-y="-11"
     inkscape:window-maximized="1"
     inkscape:current-layer="Layer_1" />
  <path
     d="m430.221 284.411 51.693-138.558c3.897-10.445-3.838-21.593-14.991-21.593h-328.033l-13.015-95.653c-.901-6.624-5.825-11.989-12.347-13.454l-65.723-14.762c-8.622-1.932-17.181 3.483-19.117 12.104-1.937 8.622 3.482 17.182 12.104 19.118l54.874 12.325 36.884 271.45c1.09 8.792 9.131 15.039 17.936 13.898l181.304-23.513 60.92 37.762c12.788 7.926 7.188 27.588-7.857 27.588h-234.354c-8.836 0-16 7.163-16 16s7.164 16 16 16h234.353c47.102 0 64.845-61.913 24.716-86.787l-27.55-17.077 35.27-4.574c5.883-.762 10.86-4.716 12.933-10.274zm-267.895 11.073-17.264-139.223h298.814l-40.266 107.931z"
     id="path2"
     style="fill:#f9f9f9"
     inkscape:export-filename="C:\Users\tazza\Desktop\splashScreen.png"
     inkscape:export-xdpi="300"
     inkscape:export-ydpi="300" />
  <path
     d="m185.253 421.503c-24.738 0-44.864 20.126-44.864 44.864 0 24.737 20.126 44.863 44.864 44.863s44.864-20.126 44.864-44.863c0-24.738-20.126-44.864-44.864-44.864zm0 57.728c-7.093 0-12.864-5.771-12.864-12.863 0-7.094 5.771-12.864 12.864-12.864s12.864 5.771 12.864 12.864c0 7.092-5.771 12.863-12.864 12.863z"
     id="path4"
     style="fill:#f9f9f9"
     inkscape:export-filename="C:\Users\tazza\Desktop\splashScreen.png"
     inkscape:export-xdpi="300"
     inkscape:export-ydpi="300" />
  <path
     d="m339.697 421.503c-24.738 0-44.864 20.126-44.864 44.864 0 24.737 20.126 44.863 44.864 44.863s44.864-20.126 44.864-44.863c0-24.738-20.126-44.864-44.864-44.864zm0 57.728c-7.093 0-12.864-5.771-12.864-12.863 0-7.094 5.771-12.864 12.864-12.864s12.864 5.771 12.864 12.864c0 7.092-5.77 12.863-12.864 12.863z"
     id="path6"
     style="fill:#f9f9f9"
     inkscape:export-filename="C:\Users\tazza\Desktop\splashScreen.png"
     inkscape:export-xdpi="300"
     inkscape:export-ydpi="300" />
  <text
     xml:space="preserve"
     style="font-style:normal;font-variant:normal;font-weight:normal;font-stretch:normal;font-size:53.2532px;line-height:1.25;font-family:'Segoe Print';-inkscape-font-specification:'Segoe Print, Normal';font-variant-ligatures:normal;font-variant-caps:normal;font-variant-numeric:normal;font-variant-east-asian:normal;fill:#f9f9f9;fill-opacity:1;stroke:none;stroke-width:0.998498"
     x="-14.05446"
     y="-38.064163"
     id="text1687"
     inkscape:export-filename="C:\Users\tazza\Desktop\splashScreen.png"
     inkscape:export-xdpi="300"
     inkscape:export-ydpi="300"><tspan
       id="tspan1685"
       style="font-style:normal;font-variant:normal;font-weight:normal;font-stretch:normal;font-size:53.2532px;font-family:'Segoe Print';-inkscape-font-specification:'Segoe Print, Normal';font-variant-ligatures:normal;font-variant-caps:normal;font-variant-numeric:normal;font-variant-east-asian:normal;stroke-width:0.998498;fill:#f9f9f9"
       x="-14.05446"
       y="-38.064163"
       sodipodi:role="line">Twoja lista zakupów</tspan></text>
</svg>
