<?xml version="1.0" encoding="UTF-8" standalone="no"?>
<svg
   id="Layer_1"
   enable-background="new 0 0 511.231 511.231"
   height="5.5in"
   viewBox="0 0 479.27906 527.20695"
   width="5in"
   version="1.1"
   sodipodi:docname="logo3.svg"
   inkscape:export-filename="C:\Users\tazza\Desktop\splashScreen.png"
   inkscape:export-xdpi="52.788578"
   inkscape:export-ydpi="52.788578"
   inkscape:version="1.1 (c68e22c387, 2021-05-23)"
   xmlns:inkscape="http://www.inkscape.org/namespaces/inkscape"
   xmlns:sodipodi="http://sodipodi.sourceforge.net/DTD/sodipodi-0.dtd"
   xmlns="http://www.w3.org/2000/svg"
   xmlns:svg="http://www.w3.org/2000/svg">
  <defs
     id="defs11" />
  <sodipodi:namedview
     id="namedview9"
     pagecolor="#ffffff"
     bordercolor="#666666"
     borderopacity="1.0"
     inkscape:pageshadow="2"
     inkscape:pageopacity="0.0"
     inkscape:pagecheckerboard="0"
     showgrid="false"
     inkscape:zoom="1.7050781"
     inkscape:cx="-57.475373"
     inkscape:cy="173.0126"
     inkscape:window-width="3840"
     inkscape:window-height="2066"
     inkscape:window-x="-11"
     inkscape:window-y="-11"
     inkscape:window-maximized="1"
     inkscape:current-layer="Layer_1"
     inkscape:document-units="mm"
     units="in"
     width="20in"
     height="5.5in" />
  <path
     d="m 413.82413,293.78064 51.693,-138.558 c 3.897,-10.445 -3.838,-21.593 -14.991,-21.593 h -328.033 l -13.015,-95.653 c -0.901,-6.624 -5.825,-11.989 -12.347,-13.454 L 31.40813,9.7606397 c -8.622,-1.932 -17.181,3.4830003 -19.117,12.1040003 -1.937,8.622 3.482,17.182 12.104,19.118 l 54.874,12.325 36.884,271.45 c 1.09,8.792 9.131,15.039 17.936,13.898 l 181.304,-23.513 60.92,37.762 c 12.788,7.926 7.188,27.588 -7.857,27.588 h -234.354 c -8.836,0 -16,7.163 -16,16 0,8.837 7.164,16 16,16 h 234.353 c 47.102,0 64.845,-61.913 24.716,-86.787 l -27.55,-17.077 35.27,-4.574 c 5.883,-0.762 10.86,-4.716 12.933,-10.274 z m -267.895,11.073 -17.264,-139.223 h 298.814 l -40.266,107.931 z"
     id="path2"
     style="fill:#f9f9f9"
     inkscape:export-filename="C:\Users\tazza\Desktop\splashScreen.png"
     inkscape:export-xdpi="300"
     inkscape:export-ydpi="300" />
  <path
     d="m 168.85613,430.87264 c -24.738,0 -44.864,20.126 -44.864,44.864 0,24.737 20.126,44.863 44.864,44.863 24.738,0 44.864,-20.126 44.864,-44.863 0,-24.738 -20.126,-44.864 -44.864,-44.864 z m 0,57.728 c -7.093,0 -12.864,-5.771 -12.864,-12.863 0,-7.094 5.771,-12.864 12.864,-12.864 7.093,0 12.864,5.771 12.864,12.864 0,7.092 -5.771,12.863 -12.864,12.863 z"
     id="path4"
     style="fill:#f9f9f9"
     inkscape:export-filename="C:\Users\tazza\Desktop\splashScreen.png"
     inkscape:export-xdpi="300"
     inkscape:export-ydpi="300" />
  <path
     d="m 323.30013,430.87264 c -24.738,0 -44.864,20.126 -44.864,44.864 0,24.737 20.126,44.863 44.864,44.863 24.738,0 44.864,-20.126 44.864,-44.863 0,-24.738 -20.126,-44.864 -44.864,-44.864 z m 0,57.728 c -7.093,0 -12.864,-5.771 -12.864,-12.863 0,-7.094 5.771,-12.864 12.864,-12.864 7.093,0 12.864,5.771 12.864,12.864 0,7.092 -5.77,12.863 -12.864,12.863 z"
     id="path6"
     style="fill:#f9f9f9"
     inkscape:export-filename="C:\Users\tazza\Desktop\splashScreen.png"
     inkscape:export-xdpi="300"
     inkscape:export-ydpi="300" />
</svg>
