<?xml version="1.0" encoding="UTF-8" standalone="no"?>
<svg
   id="Layer_1"
   enable-background="new 0 0 511.231 511.231"
   height="6in"
   viewBox="0 0 1821.2604 575.13486"
   width="19in"
   version="1.1"
   sodipodi:docname="logo-dark.svg"
   inkscape:export-filename="F:\Programowanie - Aplikacje\ShoppingList\ShoppingList\ShoppingList.Android\Resources\drawable\logo.png"
   inkscape:export-xdpi="20"
   inkscape:export-ydpi="20"
   inkscape:version="1.1 (c68e22c387, 2021-05-23)"
   xmlns:inkscape="http://www.inkscape.org/namespaces/inkscape"
   xmlns:sodipodi="http://sodipodi.sourceforge.net/DTD/sodipodi-0.dtd"
   xmlns="http://www.w3.org/2000/svg"
   xmlns:svg="http://www.w3.org/2000/svg">
  <defs
     id="defs11" />
  <sodipodi:namedview
     id="namedview9"
     pagecolor="#ffffff"
     bordercolor="#666666"
     borderopacity="1.0"
     inkscape:pageshadow="2"
     inkscape:pageopacity="0.0"
     inkscape:pagecheckerboard="0"
     showgrid="false"
     inkscape:zoom="0.85253905"
     inkscape:cx="927.81674"
     inkscape:cy="402.32761"
     inkscape:window-width="3840"
     inkscape:window-height="2066"
     inkscape:window-x="-11"
     inkscape:window-y="-11"
     inkscape:window-maximized="1"
     inkscape:current-layer="Layer_1"
     inkscape:document-units="mm"
     units="in"
     width="20in" />
  <path
     d="m 413.82413,303.15028 51.693,-138.558 c 3.897,-10.445 -3.838,-21.593 -14.991,-21.593 h -328.033 l -13.015,-95.653 c -0.901,-6.624 -5.825,-11.989 -12.347,-13.454 l -65.723,-14.762 c -8.622,-1.932 -17.181,3.483 -19.117,12.104 -1.937,8.622 3.482,17.182 12.104,19.118 l 54.874,12.325 36.884,271.45 c 1.09,8.792 9.131,15.039 17.936,13.898 l 181.304,-23.513 60.92,37.762 c 12.788,7.926 7.188,27.588 -7.857,27.588 h -234.354 c -8.836,0 -16,7.163 -16,16 0,8.837 7.164,16 16,16 h 234.353 c 47.102,0 64.845,-61.913 24.716,-86.787 l -27.55,-17.077 35.27,-4.574 c 5.883,-0.762 10.86,-4.716 12.933,-10.274 z m -267.895,11.073 -17.264,-139.223 h 298.814 l -40.266,107.931 z"
     id="path2"
     style="fill:#212529;fill-opacity:1.0"
     inkscape:export-filename="C:\Users\tazza\Desktop\splashScreen.png"
     inkscape:export-xdpi="300"
     inkscape:export-ydpi="300" />
  <path
     d="m 168.85613,440.24228 c -24.738,0 -44.864,20.126 -44.864,44.864 0,24.737 20.126,44.863 44.864,44.863 24.738,0 44.864,-20.126 44.864,-44.863 0,-24.738 -20.126,-44.864 -44.864,-44.864 z m 0,57.728 c -7.093,0 -12.864,-5.771 -12.864,-12.863 0,-7.094 5.771,-12.864 12.864,-12.864 7.093,0 12.864,5.771 12.864,12.864 0,7.092 -5.771,12.863 -12.864,12.863 z"
     id="path4"
     style="fill:#212529;fill-opacity:1.0"
     inkscape:export-filename="C:\Users\tazza\Desktop\splashScreen.png"
     inkscape:export-xdpi="300"
     inkscape:export-ydpi="300" />
  <path
     d="m 323.30013,440.24228 c -24.738,0 -44.864,20.126 -44.864,44.864 0,24.737 20.126,44.863 44.864,44.863 24.738,0 44.864,-20.126 44.864,-44.863 0,-24.738 -20.126,-44.864 -44.864,-44.864 z m 0,57.728 c -7.093,0 -12.864,-5.771 -12.864,-12.863 0,-7.094 5.771,-12.864 12.864,-12.864 7.093,0 12.864,5.771 12.864,12.864 0,7.092 -5.77,12.863 -12.864,12.863 z"
     id="path6"
     style="fill:#212529;fill-opacity:1.0"
     inkscape:export-filename="C:\Users\tazza\Desktop\splashScreen.png"
     inkscape:export-xdpi="300"
     inkscape:export-ydpi="300" />
  <text
     xml:space="preserve"
     style="font-style:normal;font-variant:normal;font-weight:normal;font-stretch:normal;font-size:213.013px;line-height:1.25;font-family:'Segoe Print';-inkscape-font-specification:'Segoe Print, Normal';font-variant-ligatures:normal;font-variant-caps:normal;font-variant-numeric:normal;font-variant-east-asian:normal;fill:#212529;fill-opacity:1.0;stroke:none;stroke-width:0.998498"
     x="640.64917"
     y="203.78969"
     id="text1687"
     inkscape:export-filename="C:\Users\tazza\Desktop\splashScreen.png"
     inkscape:export-xdpi="300"
     inkscape:export-ydpi="300"><tspan
       id="tspan1685"
       style="font-style:normal;font-variant:normal;font-weight:normal;font-stretch:normal;font-size:213.013px;font-family:'Segoe Print';-inkscape-font-specification:'Segoe Print, Normal';font-variant-ligatures:normal;font-variant-caps:normal;font-variant-numeric:normal;font-variant-east-asian:normal;fill:#212529;stroke-width:0.998498;fill-opacity:1.0"
       x="640.64917"
       y="203.78969"
       sodipodi:role="line">Twoja lista</tspan><tspan
       style="font-style:normal;font-variant:normal;font-weight:normal;font-stretch:normal;font-size:213.013px;font-family:'Segoe Print';-inkscape-font-specification:'Segoe Print, Normal';font-variant-ligatures:normal;font-variant-caps:normal;font-variant-numeric:normal;font-variant-east-asian:normal;fill:#212529;stroke-width:0.998498;fill-opacity:1.0"
       x="640.64917"
       y="470.05591"
       sodipodi:role="line"
       id="tspan1081"> zakupów</tspan></text>
</svg>
